<mxfile host="app.diagrams.net" agent="Mozilla/5.0 (Windows NT 10.0; Win64; x64) AppleWebKit/537.36 (KHTML, like Gecko) Chrome/133.0.0.0 Safari/537.36" version="26.0.14">
  <diagram name="第 1 页" id="UoMC5vd8ivBnySxl2B_A">
    <mxGraphModel dx="1381" dy="904" grid="1" gridSize="10" guides="1" tooltips="1" connect="1" arrows="1" fold="1" page="1" pageScale="1" pageWidth="827" pageHeight="1169" math="0" shadow="0">
      <root>
        <mxCell id="0" />
        <mxCell id="1" parent="0" />
        <mxCell id="YsojD1Ku064s5TlPdt2M-1" value="" style="rounded=0;whiteSpace=wrap;html=1;fillColor=#f5f5f5;fontColor=#333333;strokeColor=#666666;" vertex="1" parent="1">
          <mxGeometry x="349" y="422" width="120" height="120" as="geometry" />
        </mxCell>
        <mxCell id="YsojD1Ku064s5TlPdt2M-2" value="" style="rounded=0;whiteSpace=wrap;html=1;fillColor=#CECECE;fontColor=#333333;strokeColor=#666666;" vertex="1" parent="1">
          <mxGeometry x="359" y="432" width="120" height="120" as="geometry" />
        </mxCell>
        <mxCell id="YsojD1Ku064s5TlPdt2M-3" value="" style="rounded=0;whiteSpace=wrap;html=1;fillColor=#f5f5f5;fontColor=#333333;strokeColor=#666666;" vertex="1" parent="1">
          <mxGeometry x="369" y="442" width="120" height="120" as="geometry" />
        </mxCell>
        <mxCell id="YsojD1Ku064s5TlPdt2M-4" value="" style="rounded=0;whiteSpace=wrap;html=1;fillColor=#CECECE;fontColor=#333333;strokeColor=#666666;" vertex="1" parent="1">
          <mxGeometry x="379" y="452" width="120" height="120" as="geometry" />
        </mxCell>
        <mxCell id="YsojD1Ku064s5TlPdt2M-5" value="" style="rounded=0;whiteSpace=wrap;html=1;fillColor=#f5f5f5;fontColor=#333333;strokeColor=#666666;" vertex="1" parent="1">
          <mxGeometry x="389" y="462" width="120" height="120" as="geometry" />
        </mxCell>
        <mxCell id="YsojD1Ku064s5TlPdt2M-6" value="" style="rounded=0;whiteSpace=wrap;html=1;fillColor=#CECECE;fontColor=#333333;strokeColor=#666666;" vertex="1" parent="1">
          <mxGeometry x="399" y="472" width="120" height="120" as="geometry" />
        </mxCell>
        <mxCell id="YsojD1Ku064s5TlPdt2M-13" value="" style="rounded=0;whiteSpace=wrap;html=1;aspect=fixed;fillColor=#f5f5f5;fontColor=#333333;strokeColor=#666666;" vertex="1" parent="1">
          <mxGeometry x="576" y="459" width="60" height="60" as="geometry" />
        </mxCell>
        <mxCell id="YsojD1Ku064s5TlPdt2M-14" value="" style="rounded=0;whiteSpace=wrap;html=1;aspect=fixed;fillColor=#CECECE;fontColor=#333333;strokeColor=#666666;" vertex="1" parent="1">
          <mxGeometry x="586" y="469" width="60" height="60" as="geometry" />
        </mxCell>
        <mxCell id="YsojD1Ku064s5TlPdt2M-15" value="" style="rounded=0;whiteSpace=wrap;html=1;aspect=fixed;fillColor=#f5f5f5;fontColor=#333333;strokeColor=#666666;" vertex="1" parent="1">
          <mxGeometry x="596" y="479" width="60" height="60" as="geometry" />
        </mxCell>
        <mxCell id="YsojD1Ku064s5TlPdt2M-16" value="" style="rounded=0;whiteSpace=wrap;html=1;aspect=fixed;fillColor=#CECECE;fontColor=#333333;strokeColor=#666666;" vertex="1" parent="1">
          <mxGeometry x="606" y="489" width="60" height="60" as="geometry" />
        </mxCell>
        <mxCell id="YsojD1Ku064s5TlPdt2M-17" value="" style="rounded=0;whiteSpace=wrap;html=1;aspect=fixed;fillColor=#f5f5f5;fontColor=#333333;strokeColor=#666666;" vertex="1" parent="1">
          <mxGeometry x="616" y="499" width="60" height="60" as="geometry" />
        </mxCell>
        <mxCell id="YsojD1Ku064s5TlPdt2M-18" value="" style="rounded=0;whiteSpace=wrap;html=1;aspect=fixed;fillColor=#CECECE;fontColor=#333333;strokeColor=#666666;" vertex="1" parent="1">
          <mxGeometry x="626" y="509" width="60" height="60" as="geometry" />
        </mxCell>
        <mxCell id="YsojD1Ku064s5TlPdt2M-19" value="" style="rounded=0;whiteSpace=wrap;html=1;aspect=fixed;fillColor=#f5f5f5;fontColor=#333333;strokeColor=#666666;" vertex="1" parent="1">
          <mxGeometry x="716" y="419" width="60" height="60" as="geometry" />
        </mxCell>
        <mxCell id="YsojD1Ku064s5TlPdt2M-20" value="" style="rounded=0;whiteSpace=wrap;html=1;aspect=fixed;fillColor=#CECECE;fontColor=#333333;strokeColor=#666666;" vertex="1" parent="1">
          <mxGeometry x="726" y="429" width="60" height="60" as="geometry" />
        </mxCell>
        <mxCell id="YsojD1Ku064s5TlPdt2M-21" value="" style="rounded=0;whiteSpace=wrap;html=1;aspect=fixed;fillColor=#f5f5f5;fontColor=#333333;strokeColor=#666666;" vertex="1" parent="1">
          <mxGeometry x="736" y="439" width="60" height="60" as="geometry" />
        </mxCell>
        <mxCell id="YsojD1Ku064s5TlPdt2M-22" value="" style="rounded=0;whiteSpace=wrap;html=1;aspect=fixed;fillColor=#CECECE;fontColor=#333333;strokeColor=#666666;" vertex="1" parent="1">
          <mxGeometry x="746" y="449" width="60" height="60" as="geometry" />
        </mxCell>
        <mxCell id="YsojD1Ku064s5TlPdt2M-23" value="" style="rounded=0;whiteSpace=wrap;html=1;aspect=fixed;fillColor=#f5f5f5;fontColor=#333333;strokeColor=#666666;" vertex="1" parent="1">
          <mxGeometry x="756" y="459" width="60" height="60" as="geometry" />
        </mxCell>
        <mxCell id="YsojD1Ku064s5TlPdt2M-24" value="" style="rounded=0;whiteSpace=wrap;html=1;aspect=fixed;fillColor=#CECECE;fontColor=#333333;strokeColor=#666666;" vertex="1" parent="1">
          <mxGeometry x="766" y="469" width="60" height="60" as="geometry" />
        </mxCell>
        <mxCell id="YsojD1Ku064s5TlPdt2M-25" value="" style="rounded=0;whiteSpace=wrap;html=1;aspect=fixed;fillColor=#f5f5f5;fontColor=#333333;strokeColor=#666666;" vertex="1" parent="1">
          <mxGeometry x="776" y="479" width="60" height="60" as="geometry" />
        </mxCell>
        <mxCell id="YsojD1Ku064s5TlPdt2M-26" value="" style="rounded=0;whiteSpace=wrap;html=1;aspect=fixed;fillColor=#CECECE;fontColor=#333333;strokeColor=#666666;" vertex="1" parent="1">
          <mxGeometry x="786" y="489" width="60" height="60" as="geometry" />
        </mxCell>
        <mxCell id="YsojD1Ku064s5TlPdt2M-27" value="" style="rounded=0;whiteSpace=wrap;html=1;aspect=fixed;fillColor=#f5f5f5;fontColor=#333333;strokeColor=#666666;" vertex="1" parent="1">
          <mxGeometry x="796" y="499" width="60" height="60" as="geometry" />
        </mxCell>
        <mxCell id="YsojD1Ku064s5TlPdt2M-28" value="" style="rounded=0;whiteSpace=wrap;html=1;aspect=fixed;fillColor=#CECECE;fontColor=#333333;strokeColor=#666666;" vertex="1" parent="1">
          <mxGeometry x="806" y="509" width="60" height="60" as="geometry" />
        </mxCell>
        <mxCell id="YsojD1Ku064s5TlPdt2M-29" value="" style="rounded=0;whiteSpace=wrap;html=1;aspect=fixed;fillColor=#f5f5f5;fontColor=#333333;strokeColor=#666666;" vertex="1" parent="1">
          <mxGeometry x="816" y="519" width="60" height="60" as="geometry" />
        </mxCell>
        <mxCell id="YsojD1Ku064s5TlPdt2M-30" value="" style="rounded=0;whiteSpace=wrap;html=1;aspect=fixed;fillColor=#f5f5f5;fontColor=#333333;strokeColor=#666666;" vertex="1" parent="1">
          <mxGeometry x="885" y="435" width="30" height="30" as="geometry" />
        </mxCell>
        <mxCell id="YsojD1Ku064s5TlPdt2M-32" value="" style="rounded=0;whiteSpace=wrap;html=1;aspect=fixed;fillColor=#CECECE;fontColor=#333333;strokeColor=#666666;" vertex="1" parent="1">
          <mxGeometry x="895" y="445" width="30" height="30" as="geometry" />
        </mxCell>
        <mxCell id="YsojD1Ku064s5TlPdt2M-33" value="" style="rounded=0;whiteSpace=wrap;html=1;aspect=fixed;fillColor=#f5f5f5;fontColor=#333333;strokeColor=#666666;" vertex="1" parent="1">
          <mxGeometry x="905" y="455" width="30" height="30" as="geometry" />
        </mxCell>
        <mxCell id="YsojD1Ku064s5TlPdt2M-34" value="" style="rounded=0;whiteSpace=wrap;html=1;aspect=fixed;fillColor=#CECECE;fontColor=#333333;strokeColor=#666666;" vertex="1" parent="1">
          <mxGeometry x="915" y="465" width="30" height="30" as="geometry" />
        </mxCell>
        <mxCell id="YsojD1Ku064s5TlPdt2M-35" value="" style="rounded=0;whiteSpace=wrap;html=1;aspect=fixed;fillColor=#f5f5f5;fontColor=#333333;strokeColor=#666666;" vertex="1" parent="1">
          <mxGeometry x="925" y="475" width="30" height="30" as="geometry" />
        </mxCell>
        <mxCell id="YsojD1Ku064s5TlPdt2M-36" value="" style="rounded=0;whiteSpace=wrap;html=1;aspect=fixed;fillColor=#CECECE;fontColor=#333333;strokeColor=#666666;" vertex="1" parent="1">
          <mxGeometry x="935" y="485" width="30" height="30" as="geometry" />
        </mxCell>
        <mxCell id="YsojD1Ku064s5TlPdt2M-37" value="" style="rounded=0;whiteSpace=wrap;html=1;aspect=fixed;fillColor=#f5f5f5;fontColor=#333333;strokeColor=#666666;" vertex="1" parent="1">
          <mxGeometry x="945" y="495" width="30" height="30" as="geometry" />
        </mxCell>
        <mxCell id="YsojD1Ku064s5TlPdt2M-38" value="" style="rounded=0;whiteSpace=wrap;html=1;aspect=fixed;fillColor=#CECECE;fontColor=#333333;strokeColor=#666666;" vertex="1" parent="1">
          <mxGeometry x="955" y="505" width="30" height="30" as="geometry" />
        </mxCell>
        <mxCell id="YsojD1Ku064s5TlPdt2M-39" value="" style="rounded=0;whiteSpace=wrap;html=1;aspect=fixed;fillColor=#f5f5f5;fontColor=#333333;strokeColor=#666666;" vertex="1" parent="1">
          <mxGeometry x="965" y="515" width="30" height="30" as="geometry" />
        </mxCell>
        <mxCell id="YsojD1Ku064s5TlPdt2M-40" value="" style="rounded=0;whiteSpace=wrap;html=1;aspect=fixed;fillColor=#CECECE;fontColor=#333333;strokeColor=#666666;" vertex="1" parent="1">
          <mxGeometry x="975" y="525" width="30" height="30" as="geometry" />
        </mxCell>
        <mxCell id="YsojD1Ku064s5TlPdt2M-41" value="" style="rounded=0;whiteSpace=wrap;html=1;aspect=fixed;fillColor=#f5f5f5;fontColor=#333333;strokeColor=#666666;" vertex="1" parent="1">
          <mxGeometry x="985" y="535" width="30" height="30" as="geometry" />
        </mxCell>
        <mxCell id="YsojD1Ku064s5TlPdt2M-42" value="" style="rounded=0;whiteSpace=wrap;html=1;aspect=fixed;fillColor=#CECECE;fontColor=#333333;strokeColor=#666666;" vertex="1" parent="1">
          <mxGeometry x="995" y="545" width="30" height="30" as="geometry" />
        </mxCell>
        <mxCell id="YsojD1Ku064s5TlPdt2M-52" value="" style="rounded=0;whiteSpace=wrap;html=1;aspect=fixed;fillColor=#CECECE;fontColor=#333333;strokeColor=#666666;" vertex="1" parent="1">
          <mxGeometry x="826" y="529" width="60" height="60" as="geometry" />
        </mxCell>
        <mxCell id="YsojD1Ku064s5TlPdt2M-54" value="" style="shape=parallelogram;perimeter=parallelogramPerimeter;whiteSpace=wrap;html=1;fixedSize=1;direction=south;rotation=315;fillColor=#CECECE;fontColor=#333333;strokeColor=#666666;" vertex="1" parent="1">
          <mxGeometry x="1061" y="409.25" width="22" height="183.5" as="geometry" />
        </mxCell>
        <mxCell id="YsojD1Ku064s5TlPdt2M-55" value="" style="shape=parallelogram;perimeter=parallelogramPerimeter;whiteSpace=wrap;html=1;fixedSize=1;direction=south;rotation=315;fillColor=#CECECE;fontColor=#333333;strokeColor=#666666;" vertex="1" parent="1">
          <mxGeometry x="1145" y="424" width="22" height="140" as="geometry" />
        </mxCell>
        <mxCell id="YsojD1Ku064s5TlPdt2M-56" value="" style="shape=parallelogram;perimeter=parallelogramPerimeter;whiteSpace=wrap;html=1;fixedSize=1;direction=south;rotation=315;fillColor=#CECECE;fontColor=#333333;strokeColor=#666666;" vertex="1" parent="1">
          <mxGeometry x="1232" y="450" width="22" height="90" as="geometry" />
        </mxCell>
        <mxCell id="YsojD1Ku064s5TlPdt2M-57" value="" style="shape=flexArrow;endArrow=classic;html=1;rounded=0;" edge="1" parent="1">
          <mxGeometry width="50" height="50" relative="1" as="geometry">
            <mxPoint x="270" y="500" as="sourcePoint" />
            <mxPoint x="340" y="500" as="targetPoint" />
          </mxGeometry>
        </mxCell>
        <mxCell id="YsojD1Ku064s5TlPdt2M-60" value="" style="rounded=0;whiteSpace=wrap;html=1;fillColor=#CECECE;" vertex="1" parent="1">
          <mxGeometry x="430" y="511.5" width="15" height="15" as="geometry" />
        </mxCell>
        <mxCell id="YsojD1Ku064s5TlPdt2M-61" value="" style="rounded=0;whiteSpace=wrap;html=1;aspect=fixed;fillColor=#f5f5f5;fontColor=#333333;strokeColor=#666666;" vertex="1" parent="1">
          <mxGeometry x="842" y="566" width="8" height="8" as="geometry" />
        </mxCell>
        <mxCell id="YsojD1Ku064s5TlPdt2M-63" value="" style="rounded=0;whiteSpace=wrap;html=1;fillColor=#CECECE;fontColor=#333333;strokeColor=#666666;" vertex="1" parent="1">
          <mxGeometry x="655" y="536.5" width="15" height="15" as="geometry" />
        </mxCell>
        <mxCell id="YsojD1Ku064s5TlPdt2M-65" value="" style="endArrow=none;html=1;rounded=0;exitX=1;exitY=0;exitDx=0;exitDy=0;entryX=0.233;entryY=0.183;entryDx=0;entryDy=0;entryPerimeter=0;" edge="1" parent="1" source="YsojD1Ku064s5TlPdt2M-60">
          <mxGeometry width="50" height="50" relative="1" as="geometry">
            <mxPoint x="446" y="511" as="sourcePoint" />
            <mxPoint x="648" y="524" as="targetPoint" />
          </mxGeometry>
        </mxCell>
        <mxCell id="YsojD1Ku064s5TlPdt2M-66" value="" style="endArrow=none;html=1;rounded=0;exitX=1;exitY=1;exitDx=0;exitDy=0;entryX=1;entryY=1;entryDx=0;entryDy=0;" edge="1" parent="1" source="YsojD1Ku064s5TlPdt2M-60">
          <mxGeometry width="50" height="50" relative="1" as="geometry">
            <mxPoint x="446" y="527" as="sourcePoint" />
            <mxPoint x="648" y="524" as="targetPoint" />
          </mxGeometry>
        </mxCell>
        <mxCell id="YsojD1Ku064s5TlPdt2M-67" value="" style="endArrow=none;html=1;rounded=0;exitX=1;exitY=0;exitDx=0;exitDy=0;entryX=0;entryY=0.25;entryDx=0;entryDy=0;" edge="1" parent="1" source="YsojD1Ku064s5TlPdt2M-63">
          <mxGeometry width="50" height="50" relative="1" as="geometry">
            <mxPoint x="672" y="536.5" as="sourcePoint" />
            <mxPoint x="873" y="554.5" as="targetPoint" />
          </mxGeometry>
        </mxCell>
        <mxCell id="YsojD1Ku064s5TlPdt2M-68" value="" style="endArrow=none;html=1;rounded=0;exitX=1;exitY=1;exitDx=0;exitDy=0;" edge="1" parent="1" source="YsojD1Ku064s5TlPdt2M-63">
          <mxGeometry width="50" height="50" relative="1" as="geometry">
            <mxPoint x="672" y="551.5" as="sourcePoint" />
            <mxPoint x="873" y="554.4354838709677" as="targetPoint" />
          </mxGeometry>
        </mxCell>
        <mxCell id="YsojD1Ku064s5TlPdt2M-69" value="" style="endArrow=none;html=1;rounded=0;exitX=1;exitY=0;exitDx=0;exitDy=0;entryX=0;entryY=1;entryDx=0;entryDy=0;fillColor=#f5f5f5;strokeColor=#666666;" edge="1" parent="1" source="YsojD1Ku064s5TlPdt2M-61">
          <mxGeometry width="50" height="50" relative="1" as="geometry">
            <mxPoint x="910" y="600" as="sourcePoint" />
            <mxPoint x="1004" y="556" as="targetPoint" />
          </mxGeometry>
        </mxCell>
        <mxCell id="YsojD1Ku064s5TlPdt2M-70" value="" style="endArrow=none;html=1;rounded=0;exitX=1;exitY=1;exitDx=0;exitDy=0;entryX=0;entryY=1;entryDx=0;entryDy=0;fillColor=#f5f5f5;strokeColor=#666666;" edge="1" parent="1" source="YsojD1Ku064s5TlPdt2M-61">
          <mxGeometry width="50" height="50" relative="1" as="geometry">
            <mxPoint x="910" y="620" as="sourcePoint" />
            <mxPoint x="1004" y="556" as="targetPoint" />
          </mxGeometry>
        </mxCell>
        <mxCell id="YsojD1Ku064s5TlPdt2M-71" value="" style="endArrow=none;html=1;rounded=0;exitX=1;exitY=1;exitDx=0;exitDy=0;entryX=0.892;entryY=1.001;entryDx=0;entryDy=0;entryPerimeter=0;" edge="1" parent="1" source="YsojD1Ku064s5TlPdt2M-42" target="YsojD1Ku064s5TlPdt2M-54">
          <mxGeometry width="50" height="50" relative="1" as="geometry">
            <mxPoint x="1110" y="650" as="sourcePoint" />
            <mxPoint x="1160" y="600" as="targetPoint" />
          </mxGeometry>
        </mxCell>
        <mxCell id="YsojD1Ku064s5TlPdt2M-72" value="" style="endArrow=none;html=1;rounded=0;exitX=1;exitY=0;exitDx=0;exitDy=0;entryX=0;entryY=1;entryDx=0;entryDy=0;fillColor=#f5f5f5;strokeColor=#666666;" edge="1" parent="1" source="YsojD1Ku064s5TlPdt2M-30">
          <mxGeometry width="50" height="50" relative="1" as="geometry">
            <mxPoint x="925" y="403.25" as="sourcePoint" />
            <mxPoint x="999.3447782330823" y="449.9011274191862" as="targetPoint" />
          </mxGeometry>
        </mxCell>
        <mxCell id="YsojD1Ku064s5TlPdt2M-73" value="" style="endArrow=none;html=1;rounded=0;exitX=1;exitY=0;exitDx=0;exitDy=0;entryX=0.858;entryY=0.998;entryDx=0;entryDy=0;entryPerimeter=0;" edge="1" parent="1" source="YsojD1Ku064s5TlPdt2M-54" target="YsojD1Ku064s5TlPdt2M-55">
          <mxGeometry width="50" height="50" relative="1" as="geometry">
            <mxPoint x="1150" y="580" as="sourcePoint" />
            <mxPoint x="1200" y="530" as="targetPoint" />
          </mxGeometry>
        </mxCell>
        <mxCell id="YsojD1Ku064s5TlPdt2M-74" value="" style="endArrow=none;html=1;rounded=0;exitX=0.11;exitY=0.002;exitDx=0;exitDy=0;exitPerimeter=0;entryX=0;entryY=1;entryDx=0;entryDy=0;" edge="1" parent="1" source="YsojD1Ku064s5TlPdt2M-54" target="YsojD1Ku064s5TlPdt2M-55">
          <mxGeometry width="50" height="50" relative="1" as="geometry">
            <mxPoint x="1029" y="430" as="sourcePoint" />
            <mxPoint x="1120" y="390" as="targetPoint" />
          </mxGeometry>
        </mxCell>
        <mxCell id="YsojD1Ku064s5TlPdt2M-75" value="" style="endArrow=none;html=1;rounded=0;exitX=0.143;exitY=0.008;exitDx=0;exitDy=0;exitPerimeter=0;entryX=0;entryY=1;entryDx=0;entryDy=0;" edge="1" parent="1" source="YsojD1Ku064s5TlPdt2M-55" target="YsojD1Ku064s5TlPdt2M-56">
          <mxGeometry width="50" height="50" relative="1" as="geometry">
            <mxPoint x="1160" y="416" as="sourcePoint" />
            <mxPoint x="1230" y="422" as="targetPoint" />
          </mxGeometry>
        </mxCell>
        <mxCell id="YsojD1Ku064s5TlPdt2M-76" value="" style="endArrow=none;html=1;rounded=0;exitX=1;exitY=0;exitDx=0;exitDy=0;entryX=0.78;entryY=1.001;entryDx=0;entryDy=0;entryPerimeter=0;" edge="1" parent="1" source="YsojD1Ku064s5TlPdt2M-55" target="YsojD1Ku064s5TlPdt2M-56">
          <mxGeometry width="50" height="50" relative="1" as="geometry">
            <mxPoint x="1250" y="533" as="sourcePoint" />
            <mxPoint x="1289" y="509" as="targetPoint" />
          </mxGeometry>
        </mxCell>
        <mxCell id="YsojD1Ku064s5TlPdt2M-77" value="" style="shape=flexArrow;endArrow=classic;html=1;rounded=0;" edge="1" parent="1">
          <mxGeometry width="50" height="50" relative="1" as="geometry">
            <mxPoint x="1290" y="500" as="sourcePoint" />
            <mxPoint x="1360" y="500" as="targetPoint" />
          </mxGeometry>
        </mxCell>
      </root>
    </mxGraphModel>
  </diagram>
</mxfile>
